<svg width="125" height="28" viewBox="0 0 125 28" fill="none" xmlns="http://www.w3.org/2000/svg">
<g clip-path="url(#clip0_2063_1352)">
<path fill-rule="evenodd" clip-rule="evenodd" d="M12.9605 1.26596C12.8044 1.26596 12.6533 1.27174 12.4963 1.2767C17.5618 2.39832 18.2737 5.55422 18.8131 9.36838C18.9642 10.4528 19.601 11.3531 20.237 12.2055C20.4476 12.4863 20.6359 12.7985 20.7061 13.1495C20.7763 13.5113 20.2527 13.6294 19.9991 13.7483C19.8207 13.8293 19.6431 13.9152 19.4598 13.9961C19.4218 14.0126 19.212 14.077 19.1955 14.12C19.7563 15.3391 19.4168 15.3333 18.1003 15.5546C19.6646 15.7809 18.9692 16.1592 18.9634 16.7035C18.9634 17.1999 19.1468 17.6583 18.9634 18.2356C18.5587 19.5084 16.2122 19.2821 15.0848 19.5844C13.7848 19.9296 14.0276 20.1452 13.9954 22.6106C19.4111 22.082 23.6407 17.5187 23.6407 11.9676C23.6514 6.05556 18.8668 1.26514 12.9597 1.26514L12.9605 1.26596Z" fill="#FF5400"/>
<path fill-rule="evenodd" clip-rule="evenodd" d="M13.9856 6.46537C13.576 6.46537 13.2415 6.12592 13.2415 5.71047C13.2415 5.29503 13.576 4.95557 13.9856 4.95557C14.3953 4.95557 14.7298 5.29503 14.7298 5.71047C14.7347 6.13087 14.4011 6.46537 13.9856 6.46537Z" fill="#F15722"/>
<path fill-rule="evenodd" clip-rule="evenodd" d="M13.2414 9.47075C12.8317 9.47075 12.4972 9.13129 12.4972 8.71584C12.4972 8.3004 12.8317 7.96094 13.2414 7.96094C13.651 7.96094 13.9855 8.3004 13.9855 8.71584C13.9855 9.13129 13.651 9.47075 13.2414 9.47075Z" fill="#F15722"/>
<path fill-rule="evenodd" clip-rule="evenodd" d="M15.6142 12.4869C15.2045 12.4869 14.87 12.1466 14.87 11.732C14.87 11.3173 15.2045 10.9771 15.6142 10.9771C16.0238 10.9771 16.3583 11.3165 16.3583 11.732C16.3633 12.1474 16.0296 12.4869 15.6142 12.4869Z" fill="#F15722"/>
<path fill-rule="evenodd" clip-rule="evenodd" d="M14.0452 15.4903C13.6355 15.4903 13.301 15.1508 13.301 14.7354C13.301 14.3199 13.6355 13.9805 14.0452 13.9805C14.4549 13.9805 14.7894 14.3208 14.7894 14.7354C14.7894 15.15 14.4549 15.4903 14.0452 15.4903Z" fill="#F15722"/>
<path fill-rule="evenodd" clip-rule="evenodd" d="M13.1175 18.501C12.7078 18.501 12.3733 18.1616 12.3733 17.7461C12.3733 17.3307 12.7078 16.9912 13.1175 16.9912C13.5271 16.9912 13.8616 17.3307 13.8616 17.7461C13.8616 18.1616 13.5271 18.501 13.1175 18.501Z" fill="#F15722"/>
<path fill-rule="evenodd" clip-rule="evenodd" d="M14.4282 11.6389C14.3795 11.2556 14.04 10.9806 13.651 10.9806H7.86289C7.47965 10.9806 7.13441 10.7056 7.08651 10.3223C7.03282 9.86394 7.3888 9.47575 7.83067 9.47575H11.2723C11.6556 9.47575 12.0008 9.20072 12.0495 8.81748C12.1032 8.35909 11.7473 7.9709 11.3054 7.9709H7.37311C6.98987 7.9709 6.64463 7.69586 6.59673 7.31263C6.54304 6.85424 6.89902 6.46605 7.3409 6.46605H12.0182C12.4014 6.46605 12.7466 6.19101 12.7954 5.80778C12.849 5.34938 12.4931 4.96119 12.0512 4.96119H10.8371C10.4538 4.96119 10.1086 4.68616 10.0607 4.30292C10.007 3.84453 10.363 3.45634 10.8049 3.45634H12.612C12.9845 3.43487 13.3454 3.17057 13.3454 2.79807C13.3454 2.28021 12.9085 1.91845 12.4716 1.7194C11.9372 1.47658 11.3384 1.42785 10.7619 1.50879C10.1416 1.59469 9.54779 1.8053 8.97129 2.03739C7.94631 2.44705 6.98657 3.02438 6.13421 3.73138C5.29258 4.42764 4.55337 5.25771 3.96035 6.18606C3.35659 7.12432 2.90315 8.15508 2.61738 9.23375C2.38529 10.1241 2.26636 11.0409 2.26636 11.9635C2.26636 17.3899 6.31178 21.873 11.5556 22.5635C11.6151 21.6575 11.7175 20.0824 10.3093 20.0122H9.24137C8.85814 20.0122 8.5129 19.7372 8.46499 19.3539C8.41131 18.8955 8.76728 18.5073 9.20916 18.5073H11.1509C11.5342 18.5073 11.8794 18.2323 11.9273 17.8491C11.981 17.3907 11.625 17.0025 11.1831 17.0025H8.63183C8.2486 17.0025 7.90336 16.7275 7.85463 16.3442C7.80094 15.8858 8.15692 15.4976 8.59879 15.4976H12.0727C12.4559 15.4976 12.8011 15.2226 12.8491 14.8394C12.9027 14.381 12.5468 13.9928 12.1049 13.9928H7.76212C7.34668 13.9498 7.02869 13.5666 7.0989 13.1239C7.15836 12.7514 7.49287 12.4929 7.87032 12.4929H13.6857C14.1284 12.4871 14.4844 12.0989 14.4299 11.6405L14.4282 11.6389ZM8.8664 3.44973C9.27606 3.44973 9.61056 3.78919 9.61056 4.20464C9.61056 4.62008 9.27606 4.95954 8.8664 4.95954C8.45673 4.95954 8.12223 4.62008 8.12223 4.20464C8.12223 3.78919 8.45673 3.44973 8.8664 3.44973ZM5.89964 9.46997C6.3093 9.46997 6.64381 9.81026 6.64381 10.2249C6.64381 10.6395 6.3093 10.9798 5.89964 10.9798C5.48998 10.9798 5.15547 10.6403 5.15547 10.2249C5.14969 9.80447 5.4842 9.46997 5.89964 9.46997ZM5.14969 13.2296C5.14969 12.8142 5.4842 12.4747 5.89386 12.4747C6.30352 12.4747 6.63803 12.8142 6.63803 13.2296C6.63803 13.6451 6.30352 13.9845 5.89386 13.9845C5.4842 13.9845 5.14969 13.6451 5.14969 13.2296ZM7.41027 16.2393C7.41027 16.6548 7.07577 16.9942 6.66611 16.9942C6.25644 16.9942 5.92194 16.6548 5.92194 16.2393C5.92194 15.8239 6.25644 15.4844 6.66611 15.4844C7.07577 15.4844 7.41027 15.8189 7.41027 16.2393Z" fill="#FF5400"/>
<path d="M31.5301 15.5297C31.7341 18.2627 33.9112 20.0608 37.0234 20.0608C39.7564 20.0608 41.7023 18.8103 41.7023 16.6042C41.7023 14.0752 39.2013 13.5557 36.1247 13.0288C32.8441 12.4737 29.4718 11.3992 29.4718 7.45123C29.4718 3.99469 32.2891 1.6416 36.4196 1.6416C40.7822 1.6416 43.6829 4.1987 43.915 7.85841H41.414C41.1258 5.50532 39.1452 3.93853 36.4122 3.93853C33.6792 3.93853 31.9934 5.13283 31.9934 7.31082C31.9934 9.75558 34.4663 10.247 37.5148 10.7674C40.8309 11.3224 44.2305 12.425 44.2305 16.373C44.2305 19.8923 41.2662 22.3585 36.9945 22.3585C32.1404 22.3585 29.1753 19.5413 29.0283 15.5305H31.5292L31.5301 15.5297Z" fill="#2B2358"/>
<path d="M47.8911 7.36084L52.4502 19.4509L56.869 7.36084H59.398L52.57 24.684C51.6424 27.0652 51.0874 28.0001 48.9945 28.0001H46.1492V25.8221H48.2702C49.6329 25.8221 49.837 25.4711 50.4201 24.0802L51.1783 22.3102L45.3687 7.37488H47.8902V7.36084H47.8911Z" fill="#2B2358"/>
<path d="M63.5497 1.83838V22.1828H61.1686V1.83838H63.5497Z" fill="#2B2358"/>
<path d="M69.1907 1.83838V22.1828H66.8096V1.83838H69.1907Z" fill="#2B2358"/>
<path d="M86.3108 20.0057V22.1837H85.0042C83.0302 22.1837 82.3628 21.3404 82.3281 19.8868C81.4006 21.2215 79.9189 22.3596 77.361 22.3596C74.1084 22.3596 71.8958 20.73 71.8958 18.0325C71.8958 15.0683 73.9614 13.4098 77.8532 13.4098H82.2158V12.3914C82.2158 10.4736 80.853 9.30737 78.528 9.30737C76.4343 9.30737 75.0442 10.2977 74.7485 11.8083H72.3674C72.7184 8.90019 75.0715 7.18555 78.6478 7.18555C82.4272 7.18555 84.6052 9.07528 84.6052 12.5318V18.9246C84.6052 19.6481 84.9852 19.9991 85.5955 19.9991H86.3124V20.0065L86.3108 20.0057ZM82.2084 15.411H77.6137C75.4919 15.411 74.2976 16.1981 74.2976 17.8839C74.2976 19.3383 75.548 20.3286 77.522 20.3286C80.4863 20.3286 82.2009 18.6148 82.2009 16.142V15.411H82.2075H82.2084Z" fill="#2B2358"/>
<path d="M102.728 14.7717C102.728 19.3028 99.7076 22.3587 95.6052 22.3587C93.1043 22.3587 91.4185 21.3403 90.5191 19.9139L90.1962 22.1828H88.1305V1.83838H90.5117V9.74174C91.502 8.37895 93.0968 7.18465 95.5978 7.18465C99.7076 7.18465 102.728 9.94575 102.728 14.7717ZM100.283 14.7717C100.283 11.5472 98.3093 9.30648 95.3731 9.30648C92.4369 9.30648 90.491 11.5472 90.491 14.7089C90.491 17.8706 92.465 20.2303 95.3731 20.2303C98.3093 20.2377 100.283 17.9961 100.283 14.7717Z" fill="#2B2358"/>
<path d="M107.842 1.83838V22.1828H105.461V1.83838H107.842Z" fill="#2B2358"/>
<path d="M117.607 7.18555C121.674 7.18555 124.526 9.82688 124.639 14.2176C124.639 14.5405 124.611 14.8849 124.583 15.2359H113.076V15.4399C113.16 18.32 114.994 20.2378 117.755 20.2378C119.849 20.2378 121.478 19.1352 121.97 17.2173H124.379C123.796 20.1816 121.359 22.3596 117.93 22.3596C113.483 22.3596 110.575 19.3111 110.575 14.7726C110.575 10.2341 113.421 7.18555 117.607 7.18555ZM122.166 13.2619C121.935 10.7049 120.101 9.27846 117.635 9.27846C115.457 9.27846 113.449 10.8453 113.217 13.2619H122.166Z" fill="#2B2358"/>
</g>
<defs>
<clipPath id="clip0_2063_1352">
<rect width="124.639" height="28" fill="white"/>
</clipPath>
</defs>
</svg>
